<svg aria-hidden="true" style="position: absolute; width: 0; height: 0; overflow: hidden;" version="1.1" xmlns="http://www.w3.org/2000/svg" xmlns:xlink="http://www.w3.org/1999/xlink">
<defs>
<symbol id="arrow-left" viewBox="0 0 32 32">
<path stroke-linejoin="round" stroke-linecap="round" stroke-miterlimit="4" stroke-width="2.667" d="M6.667 16h18.667M16 25.333l9.333-9.333-9.333-9.333"></path>
</symbol>
<symbol id="arrow-left-pagination" viewBox="0 0 32 32">
<path stroke-linejoin="round" stroke-linecap="round" stroke-miterlimit="4" stroke-width="2.666" d="M25.334 16h-18.668M16 25.334l-9.334-9.334 9.334-9.334"></path>
</symbol>
<symbol id="arrow-right" viewBox="0 0 32 32">
<path stroke-linejoin="round" stroke-linecap="round" stroke-miterlimit="4" stroke-width="2.667" d="M25.333 16h-18.667M16 25.333l-9.333-9.333 9.333-9.333"></path>
</symbol>
<symbol id="arrow-right-pagination" viewBox="0 0 32 32">
<path stroke-linejoin="round" stroke-linecap="round" stroke-miterlimit="4" stroke-width="2.666" d="M6.666 16h18.668M16 25.334l9.334-9.334-9.334-9.334"></path>
</symbol>
<symbol id="close" viewBox="0 0 32 32">
<path stroke-linejoin="round" stroke-linecap="round" stroke-miterlimit="4" stroke-width="2.666" d="M6.666 16h18.668M16 25.334l9.334-9.334-9.334-9.334"></path>
</symbol>
<symbol id="film" viewBox="0 0 32 32">
<path d="M30 0h-28c-1.105 0-2 0.872-2 1.976v28c0 1.105 0.895 2.024 2 2.024h28c1.105 0 2-0.919 2-2.024v-28c0-1.105-0.895-1.976-2-1.976zM7 28h-3v-3h3v3zM7 21h-3v-3h3v3zM7 14h-3v-3h3v3zM7 7h-3v-3h3v3zM22 28h-12v-10h12v10zM22 14h-12v-10h12v10zM28 28h-3v-3h3v3zM28 21h-3v-3h3v3zM28 14h-3v-3h3v3zM28 7h-3v-3h3v3z"></path>
</symbol>
<symbol id="github" viewBox="0 0 32 32">
<path d="M16 1c-8.284 0-15 6.716-15 15s6.716 15 15 15 15-6.716 15-15-6.716-15-15-15zM29 16c0 0.001 0 0.003 0 0.005 0 5.939-3.981 10.947-9.421 12.5l-0.092 0.023v-4.864q0-1.731-0.928-2.533c0.688-0.069 1.311-0.183 1.913-0.34l-0.085 0.019c0.639-0.179 1.196-0.416 1.712-0.715l-0.035 0.019c0.567-0.312 1.045-0.708 1.44-1.179l0.007-0.008q0.58-0.705 0.945-1.873t0.365-2.685q0-2.159-1.409-3.676 0.66-1.624-0.143-3.64-0.5-0.161-1.445 0.196c-0.633 0.235-1.173 0.499-1.684 0.809l0.043-0.024-0.679 0.428c-1.027-0.295-2.207-0.464-3.427-0.464s-2.399 0.169-3.517 0.485l0.091-0.021c-0.787-1.503-2.781-1.599-3.783-1.409-0.667 1.063-0.587 2.739-0.125 3.64q-1.409 1.517-1.409 3.676 0 1.517 0.365 2.676t0.937 1.873c0.395 0.484 0.871 0.884 1.412 1.183l0.025 0.012c0.481 0.28 1.039 0.519 1.625 0.684l0.051 0.012c0.519 0.14 1.141 0.252 1.777 0.317l0.052 0.004q-0.713 0.643-0.875 1.839c-0.231 0.112-0.499 0.204-0.78 0.264l-0.023 0.004c-0.285 0.057-0.613 0.089-0.948 0.089-0.024 0-0.048 0-0.072 0h0.004q-0.589 0-1.169-0.384t-0.991-1.116c-0.221-0.375-0.511-0.684-0.856-0.921l-0.009-0.007q-0.527-0.357-0.883-0.428l-0.161-0.036c-0.027-0.007-0.059-0.011-0.091-0.011-0.16 0-0.299 0.091-0.367 0.223l-0.001 0.003-0.021 0.041c-0.029 0.055-0.045 0.12-0.045 0.189 0 0.167 0.097 0.309 0.239 0.375l0.003 0.001q0.392 0.179 0.776 0.679c0.212 0.264 0.4 0.563 0.551 0.883l0.012 0.027 0.179 0.411c0.151 0.448 0.424 0.823 0.78 1.093l0.005 0.004c0.333 0.261 0.737 0.449 1.179 0.532l0.017 0.003c0.368 0.072 0.796 0.117 1.233 0.125h0.007c0.049 0.001 0.108 0.003 0.167 0.003 0.291 0 0.576-0.024 0.853-0.069l-0.031 0.004 0.411-0.071q0 0.677 0.009 1.588c0.004 0.368 0.007 1.369 0.008 2.109-5.617-1.521-9.683-6.573-9.683-12.575 0-5.352 3.232-9.949 7.852-11.945l0.084-0.032c1.495-0.649 3.235-1.027 5.064-1.027 7.177 0 12.996 5.819 12.996 12.996 0 0.004 0 0.008 0 0.012v0z"></path>
</symbol>
<symbol id="heart" viewBox="0 0 32 32">
<path fill="#ff6b08" style="fill: var(--color1, #ff6b08)" d="M16 30.583l-2.24-2.24c-8.32-7.36-13.76-12.32-13.76-18.4 0-4.96 3.84-8.8 8.8-8.8 2.72 0 5.44 1.28 7.2 3.36 1.76-2.080 4.48-3.36 7.2-3.36 4.96 0 8.8 3.84 8.8 8.8 0 6.080-5.44 11.040-13.76 18.4l-2.24 2.24z"></path>
</symbol>
<symbol id="search" viewBox="0 0 32 32">
<path d="M31.597 29.708l-9.181-9.188c1.81-2.171 2.899-4.945 2.899-7.975 0-6.912-5.673-12.532-12.65-12.532s-12.664 5.627-12.664 12.539 5.673 12.532 12.65 12.532c2.964 0 5.692-1.017 7.857-2.715l9.214 9.214c0.538 0.538 1.338 0.538 1.876 0s0.538-1.338 0-1.876zM2.689 12.552c0-5.43 4.473-9.844 9.962-9.844s9.962 4.414 9.962 9.844-4.473 9.844-9.962 9.844-9.962-4.42-9.962-9.844z"></path>
</symbol>
<symbol id="sp_btn" viewBox="0 0 32 32">
<path d="M3.765 2.353l-2.259 2.447 5.459 5.082-2.259-2.635-2.165-2.541 2.165-2.353c1.224-1.318 1.976-2.353 1.694-2.353-0.188 0-1.412 1.035-2.635 2.353z"></path>
<path d="M8.471 2.353l-2.259 2.447 5.459 5.082-2.259-2.635-2.165-2.541 2.165-2.353c1.224-1.318 1.976-2.353 1.694-2.353-0.188 0-1.412 1.035-2.635 2.353z"></path>
<path d="M28.235 2.353l-2.259 2.447 5.459 5.082-2.259-2.635-2.165-2.541 2.165-2.353c1.224-1.318 1.976-2.353 1.694-2.353-0.188 0-1.412 1.035-2.635 2.353z"></path>
<path d="M2.824 13.365l2.165 2.635-2.165 2.541-2.259 2.635 2.729-2.635 2.824-2.541-2.824-2.635-2.729-2.541 2.259 2.541z"></path>
<path d="M7.906 13.835c1.788 2.071 1.788 2.259 0 4.235l-1.694 2.165 2.259-2.165 2.259-2.071-2.259-2.165-2.259-2.071 1.694 2.071z"></path>
<path d="M0.941 23.529c0 0.471 0.471 0.941 0.941 0.941 0.565 0 0.941-0.471 0.941-0.941 0-0.565-0.376-0.941-0.941-0.941-0.471 0-0.941 0.376-0.941 0.941z"></path>
<path d="M4.706 23.529c0 0.471 0.471 0.941 0.941 0.941 0.565 0 0.941-0.471 0.941-0.941 0-0.565-0.376-0.941-0.941-0.941-0.471 0-0.941 0.376-0.941 0.941z"></path>
<path d="M8.471 23.529c0 0.471 0.471 0.941 0.941 0.941 0.565 0 0.941-0.471 0.941-0.941 0-0.565-0.376-0.941-0.941-0.941-0.471 0-0.941 0.376-0.941 0.941z"></path>
<path d="M15.059 24.659l2.165 2.635-2.165 2.541-2.259 2.635 2.729-2.541 2.824-2.635-2.824-2.635-2.729-2.541 2.259 2.541z"></path>
</symbol>
<symbol id="telegram" viewBox="0 0 32 32">
<path d="M16 0c-8.837 0-16 7.163-16 16s7.163 16 16 16c8.837 0 16-7.163 16-16s-7.163-16-16-16zM23.701 8.756l-2.855 14.392s-0.399 0.998-1.497 0.519l-6.567-5.17s7.306-6.567 7.605-6.847c0.299-0.279 0.2-0.339 0.2-0.339 0.020-0.339-0.539 0-0.539 0l-9.681 6.148-4.032-1.357s-0.619-0.22-0.679-0.699c-0.060-0.479 0.699-0.739 0.699-0.739l16.029-6.288s1.317-0.579 1.317 0.379zM15.288 20.553l-2.606 2.375s-0.204 0.154-0.427 0.058l0.499-4.413 2.533 1.979z"></path>
</symbol>
<symbol id="totop" viewBox="0 0 32 32">
<path d="M16 0c-8.837 0-16 7.163-16 16s7.163 16 16 16c8.837 0 16-7.163 16-16s-7.163-16-16-16zM23.701 8.756l-2.855 14.392s-0.399 0.998-1.497 0.519l-6.567-5.17s7.306-6.567 7.605-6.847c0.299-0.279 0.2-0.339 0.2-0.339 0.020-0.339-0.539 0-0.539 0l-9.681 6.148-4.032-1.357s-0.619-0.22-0.679-0.699c-0.060-0.479 0.699-0.739 0.699-0.739l16.029-6.288s1.317-0.579 1.317 0.379zM15.288 20.553l-2.606 2.375s-0.204 0.154-0.427 0.058l0.499-4.413 2.533 1.979z"></path>
</symbol>
</defs>
</svg>
