<?xml version="1.0" standalone="no"?>
<!DOCTYPE svg PUBLIC "-//W3C//DTD SVG 20010904//EN"
 "http://www.w3.org/TR/2001/REC-SVG-20010904/DTD/svg10.dtd">
<svg version="1.0" xmlns="http://www.w3.org/2000/svg"
 width="32.000000pt" height="34.000000pt" viewBox="0 0 32.000000 34.000000"
 preserveAspectRatio="xMidYMid meet">

<g transform="translate(0.000000,34.000000) scale(0.100000,-0.100000)"
fill="#000000" stroke="none">
<path d="M30 315 l-24 -26 29 -27 29 -27 -24 28 -23 27 23 25 c13 14 21 25 18
25 -2 0 -15 -11 -28 -25z"/>
<path d="M80 315 l-24 -26 29 -27 29 -27 -24 28 -23 27 23 25 c13 14 21 25 18
25 -2 0 -15 -11 -28 -25z"/>
<path d="M290 315 l-24 -26 29 -27 29 -27 -24 28 -23 27 23 25 c13 14 21 25
18 25 -2 0 -15 -11 -28 -25z"/>
<path d="M20 198 l23 -28 -23 -27 -24 -28 29 28 30 27 -30 28 -29 27 24 -27z"/>
<path d="M74 193 c19 -22 19 -24 0 -45 l-18 -23 24 23 24 22 -24 23 -24 22 18
-22z"/>
<path d="M0 90 c0 -5 5 -10 10 -10 6 0 10 5 10 10 0 6 -4 10 -10 10 -5 0 -10
-4 -10 -10z"/>
<path d="M40 90 c0 -5 5 -10 10 -10 6 0 10 5 10 10 0 6 -4 10 -10 10 -5 0 -10
-4 -10 -10z"/>
<path d="M80 90 c0 -5 5 -10 10 -10 6 0 10 5 10 10 0 6 -4 10 -10 10 -5 0 -10
-4 -10 -10z"/>
<path d="M150 78 l23 -28 -23 -27 -24 -28 29 27 30 28 -30 28 -29 27 24 -27z"/>
</g>
</svg>
